<?xml version="1.0" encoding="UTF-8" standalone="no"?>
<!-- Created with Inkscape (http://www.inkscape.org/) -->

<svg
   xmlns:dc="http://purl.org/dc/elements/1.1/"
   xmlns:cc="http://creativecommons.org/ns#"
   xmlns:rdf="http://www.w3.org/1999/02/22-rdf-syntax-ns#"
   xmlns:svg="http://www.w3.org/2000/svg"
   xmlns="http://www.w3.org/2000/svg"
   xmlns:xlink="http://www.w3.org/1999/xlink"
   xmlns:sodipodi="http://sodipodi.sourceforge.net/DTD/sodipodi-0.dtd"
   xmlns:inkscape="http://www.inkscape.org/namespaces/inkscape"
   width="64"
   height="64"
   id="svg2"
   version="1.1"
   inkscape:version="0.3 r12068 custom"
   sodipodi:docname="Dead.svg"
   inkscape:export-filename="/home/xinef/jmonkeyplatform/workspace/Assets/Particles/Dead.png"
   inkscape:export-xdpi="90"
   inkscape:export-ydpi="90">
  <defs
     id="defs4" />
  <sodipodi:namedview
     id="base"
     pagecolor="#ffffff"
     bordercolor="#666666"
     borderopacity="1.0"
     inkscape:pageopacity="0.0"
     inkscape:pageshadow="2"
     inkscape:zoom="3.959798"
     inkscape:cx="20.977232"
     inkscape:cy="51.385134"
     inkscape:document-units="px"
     inkscape:current-layer="layer4"
     showgrid="false"
     inkscape:window-width="1280"
     inkscape:window-height="950"
     inkscape:window-x="0"
     inkscape:window-y="25"
     inkscape:window-maximized="1" />
  <metadata
     id="metadata7">
    <rdf:RDF>
      <cc:Work
         rdf:about="">
        <dc:format>image/svg+xml</dc:format>
        <dc:type
           rdf:resource="http://purl.org/dc/dcmitype/StillImage" />
        <dc:title />
      </cc:Work>
    </rdf:RDF>
  </metadata>
  <g
     inkscape:label="Layer 1"
     inkscape:groupmode="layer"
     id="layer1"
     transform="translate(0,-988.36218)"
     style="display:none"
     sodipodi:insensitive="true">
    <image
       sodipodi:absref="/home/xinef/jmonkeyplatform/workspace/Assets/doWektorniecia/10376858_567424186704700_5139605511263149607_n.jpg"
       y="0.34628794"
       x="-1071.3372"
       id="image7171"
       xlink:href="file:///home/xinef/jmonkeyplatform/workspace/Assets/doWektorniecia/10376858_567424186704700_5139605511263149607_n.jpg"
       height="65.225143"
       width="115.74147"
       transform="matrix(0,-1,1,0,0,0)" />
    <image
       sodipodi:absref="/home/xinef/jmonkeyplatform/workspace/Assets/doWektorniecia/mlp_fim_size_comparison__edited__by_theshadowstone-d698hgr.png"
       y="661.80267"
       x="-588.77704"
       id="image7260"
       xlink:href="file:///home/xinef/jmonkeyplatform/workspace/Assets/doWektorniecia/mlp_fim_size_comparison__edited__by_theshadowstone-d698hgr.png"
       height="228"
       width="1280" />
  </g>
  <g
     inkscape:groupmode="layer"
     id="layer3"
     inkscape:label="Layer 3"
     style="display:inline"
     sodipodi:insensitive="true">
    <path
       sodipodi:nodetypes="ccccccccc"
       inkscape:connector-curvature="0"
       id="path7191"
       d="m 11.785714,45.428571 c 2.118743,-7.447152 1.765524,-10.600896 12.410715,-32.857142 4.412159,-1.76138 8.261081,-4.2571794 14.285714,-5.8035719 4.420264,3.4206569 7.211278,5.4836049 10.267857,7.7678569 0.110021,3.564622 0.341087,5.014288 1.057198,8.23826 -1.354564,6.231181 -3.288836,14.740797 -3.288836,14.740797 C 35.893167,43.275704 26.561832,50.850674 18.988213,59.09512 15.621453,53.782543 13.950119,52.542202 11.409574,51.283049 12.103655,47.878784 12.383845,45.664884 11.785714,45.428571 Z"
       style="fill:#8f6d40;fill-opacity:1;stroke:none" />
    <path
       style="fill:#574327;fill-opacity:1;stroke:none"
       d="M 18.928572,51.589286 C 29.010374,40.943978 32.859296,36.439249 45.848215,30.383929 47.487335,24.004789 48.276864,19.553705 48.75,14.535714 c 0.110021,3.564622 0.341087,5.014288 1.057198,8.23826 -1.354564,6.231181 -3.288836,14.740797 -3.288836,14.740797 C 35.893167,43.275704 26.561832,50.850674 18.988213,59.09512 19.018621,55.634891 19.026546,53.842593 18.928572,51.589286 Z"
       id="path7196"
       inkscape:connector-curvature="0"
       sodipodi:nodetypes="ccccccc" />
  </g>
  <g
     inkscape:groupmode="layer"
     id="layer2"
     inkscape:label="Layer 2"
     style="display:inline"
     sodipodi:insensitive="true">
    <path
       style="fill:none;stroke:#2f2415;stroke-width:1px;stroke-linecap:butt;stroke-linejoin:miter;stroke-opacity:1"
       d="m 11.785714,45.428571 c 2.118743,-7.447152 1.765524,-10.600896 12.410715,-32.857142 4.412159,-1.76138 8.261081,-4.2571794 14.285714,-5.8035719 4.420264,3.4206569 7.211278,5.4836049 10.267857,7.7678569 -0.581943,5.060158 -1.117897,10.101921 -2.857143,15.625 -12.845049,6.104912 -20.215873,13.8942 -26.964286,21.875 C 15.668186,48.074467 13.380518,46.058656 11.785714,45.428571 Z"
       id="path7175"
       inkscape:connector-curvature="0"
       sodipodi:nodetypes="ccccccc" />
    <path
       style="fill:none;stroke:#2f2415;stroke-width:1px;stroke-linecap:butt;stroke-linejoin:miter;stroke-opacity:1"
       d="m 11.339286,51.142857 c 2.962185,0.97864 5.428055,3.942542 7.678571,7.767857 C 29.191626,48.228512 38.862578,40.494736 46.696429,37.303571 47.49954,33.226497 49.277196,27.249726 49.910714,22.660714"
       id="path7177"
       inkscape:connector-curvature="0"
       sodipodi:nodetypes="cccc" />
    <path
       style="fill:none;stroke:#2f2415;stroke-width:1px;stroke-linecap:round;stroke-linejoin:miter;stroke-opacity:1"
       d="m 11.683189,45.747745 c 0.355624,2.709586 0.07754,3.353031 -0.204795,5.458247"
       id="path7180"
       inkscape:connector-curvature="0"
       sodipodi:nodetypes="cc" />
    <path
       style="fill:none;stroke:#2f2415;stroke-width:1px;stroke-linecap:round;stroke-linejoin:miter;stroke-opacity:1"
       d="m 48.917411,14.658482 c 0.0399,2.868775 0.406721,5.586664 0.993303,8.203125"
       id="path7182"
       inkscape:connector-curvature="0"
       sodipodi:nodetypes="cc" />
    <path
       style="fill:none;stroke:#2f2415;stroke-width:1px;stroke-linecap:round;stroke-linejoin:miter;stroke-opacity:1"
       d="m 18.928571,52.035714 c -0.09237,2.24086 -0.0054,4.48172 0.110022,6.72258"
       id="path7184"
       inkscape:connector-curvature="0"
       sodipodi:nodetypes="cc" />
    <path
       style="fill:none;stroke:#2f2415;stroke-width:1px;stroke-linecap:round;stroke-linejoin:miter;stroke-opacity:1"
       d="m 45.803571,30.25 c 0.122564,3.889185 0.479237,5.156355 0.803572,6.785714"
       id="path7186"
       inkscape:connector-curvature="0"
       sodipodi:nodetypes="cc" />
  </g>
  <g
     inkscape:groupmode="layer"
     id="layer4"
     inkscape:label="Layer 4"
     sodipodi:insensitive="true">
    <path
       style="opacity:0.46583856;fill:#574327;fill-opacity:1;stroke:#2f2415;stroke-width:0.40000001;stroke-linecap:butt;stroke-linejoin:miter;stroke-miterlimit:4;stroke-opacity:1;stroke-dasharray:none"
       d="m 30.057175,25.565119 c 0.601305,0.622467 1.21211,1.237073 2.076619,1.642015 l 0.192816,-0.380699 c 0.374984,0.441083 0.774633,0.842691 1.294139,1.052422 0.437556,-2.08992 0.511875,-2.128355 2.809488,-5.006551 1.178889,0.03257 2.068699,-1.690694 2.998656,-3.17011 0.227785,0.188333 0.475116,0.33496 0.736245,0.452065 0.28597,0.128244 0.588504,0.221079 0.900143,0.294444 l 1.171263,0.485106 c 0.450736,-0.386397 1.199595,-0.726728 1.070784,-1.137333 -0.309895,-0.539349 -0.275009,-0.888764 -0.414535,-1.250182 0.85669,-2.440501 -0.286482,-3.480412 -2.598144,-3.701992 0.02312,-0.670565 -0.02601,-1.11985 -0.150688,-1.337756 -1.504829,0.519244 -1.659127,1.461347 -1.702101,2.183062 -0.02902,0.487457 -0.02754,0.723658 -0.02668,1.178434 l -1.977147,2.20137 c -0.518818,-0.839286 -0.655296,-1.844604 -2.054353,-2.30162 0.591142,-1.309673 -0.146881,-2.544298 -1.171606,-3.154378 -2.827492,-1.179259 -3.85033,0.22747 -5.334764,1.653259 0.636032,-0.373811 1.267754,-0.766282 1.963882,-0.879911 -0.344351,0.514894 -0.747963,1.00989 -1.287411,1.459267 0.341485,0.764482 0.573272,1.022519 0.820555,1.352089 0.0844,-0.381877 0.02403,-0.782842 0.446377,-1.120159 -0.167614,1.068978 0.06888,1.758684 0.558589,2.210725 0.85052,-2.815729 3.05859,-3.323105 3.380786,-1.443772 -1.514156,0.824708 -2.058134,2.005378 -2.503494,3.222245 -0.203478,0.05357 -0.37692,-0.102452 -0.553089,-0.239458 -1.715494,0.714039 -2.593797,1.882621 -3.870958,2.834648 0.340103,0.641013 0.971232,1.161 1.776734,1.608466 l 0.19447,-0.239136 c 0.453681,0.463357 0.739588,0.606863 0.952213,0.610773 0.474597,-0.718481 0.964717,-1.425096 1.599236,-2.021383 0.520341,-0.488963 1.13784,-0.903685 1.923578,-1.189861 0.05075,0.115653 0.101112,0.05045 0.281335,0.228788 C 32.216305,22.838889 30.682835,23.885563 30.057175,25.565119 Z"
       id="path7263"
       inkscape:connector-curvature="0"
       sodipodi:nodetypes="ccccccsccccccscccccccccccccccccsccc" />
    <path
       style="opacity:0.46583856;fill:none;stroke:#00ff00;stroke-width:0.92380446px;stroke-linecap:butt;stroke-linejoin:miter;stroke-opacity:1"
       d="m -139.27902,42.0459 c 5.52809,0.666221 11.07168,1.254646 17.03056,-0.233283 l -0.58289,-2.682915 c 3.66215,0.679525 7.28717,1.061894 10.7316,0 -6.29929,-12.207861 -6.08434,-12.701378 -6.29896,-36.3941547 6.01659,-4.622722 3.46302,-16.8362053 2.09967,-27.9954963 1.90146,0.01544 3.73118,-0.256637 5.50995,-0.732075 1.94797,-0.520672 3.83488,-1.285327 5.68821,-2.184123 l 7.815435,-2.332959 c 0.68138,-3.758294 3.03782,-8.496778 0.72815,-10.023438 -3.736125,-1.43422 -4.980325,-3.31992 -7.143815,-4.55756 -5.63026,-15.6591 -15.55752,-16.20945 -27.99551,-7.93205 -2.60651,-3.44096 -4.6755,-5.48409 -6.18232,-6.06569 -5.40359,8.70013 -2.34962,14.02892 0.36543,17.80577 1.83384,2.55089 2.79998,3.7239 4.65029,5.9904 l -0.93314,19.013609 c -5.99645,-2.083295 -10.75842,-6.547313 -19.59686,-3.149487 -2.36551,-8.93672 -11.06087,-12.103547 -18.65215,-10.989212 -18.90011,5.591027 -18.29541,16.764523 -19.91739,29.90684035 1.65736,-4.44761805 3.21745,-8.97088305 6.23089,-12.36375335 0.37122,3.9678493 0.36608,8.0769243 -0.50246,12.50968035 4.80771,2.42973995 7.01206,2.77685295 9.58416,3.41812995 -1.12884,-2.24869697 -3.05777,-4.00506895 -2.31887,-7.403145 3.50253,6.016134 7.48262,8.498797 11.76188,8.767336 -7.18417,-17.5069873 1.7778,-29.0024403 11.01454,-20.9296783 -4.21022,10.2626943 -2.13293,18.3640543 0.58353,26.2457837 -0.79822,1.0933233 -2.29725,1.0185963 -3.73272,1.0498323 -5.66441,10.527567 -5.30497,19.925667 -7.81543,29.86187 4.29959,1.81906 9.56055,1.852695 15.39751,0.816541 l 0,-1.983021 c 4.14538,0.471263 6.15498,0.02702 7.23216,-0.816542 -0.5475,-5.512729 -0.96935,-11.029248 -0.2226,-16.581203 0.61248,-4.552782 2.01128,-9.129381 4.77162,-13.7472527 0.72275,0.371284 0.7095,-0.158589 2.33296,0 C -139.56802,19.673778 -142.97366,31.122813 -139.27902,42.0459 Z"
       id="path7263-0"
       inkscape:connector-curvature="0"
       sodipodi:nodetypes="ccccccsccccccscccccccccccccccccsccc" />
  </g>
</svg>
