<?xml version="1.0" encoding="UTF-8" standalone="no"?>
<!-- Created with Inkscape (http://www.inkscape.org/) -->

<svg
   xmlns:dc="http://purl.org/dc/elements/1.1/"
   xmlns:cc="http://creativecommons.org/ns#"
   xmlns:rdf="http://www.w3.org/1999/02/22-rdf-syntax-ns#"
   xmlns:svg="http://www.w3.org/2000/svg"
   xmlns="http://www.w3.org/2000/svg"
   xmlns:xlink="http://www.w3.org/1999/xlink"
   xmlns:sodipodi="http://sodipodi.sourceforge.net/DTD/sodipodi-0.dtd"
   xmlns:inkscape="http://www.inkscape.org/namespaces/inkscape"
   width="64"
   height="64"
   id="svg2"
   version="1.1"
   inkscape:version="0.3 r12068 custom"
   sodipodi:docname="Fire.svg"
   inkscape:export-filename="/home/xinef/jmonkeyplatform/workspace/Assets/Particles/Fire.png"
   inkscape:export-xdpi="90"
   inkscape:export-ydpi="90">
  <defs
     id="defs4">
    <filter
       inkscape:collect="always"
       id="filter7267">
      <feGaussianBlur
         inkscape:collect="always"
         stdDeviation="0.23943641"
         id="feGaussianBlur7269" />
    </filter>
    <filter
       inkscape:collect="always"
       id="filter7271">
      <feGaussianBlur
         inkscape:collect="always"
         stdDeviation="0.23943641"
         id="feGaussianBlur7273" />
    </filter>
  </defs>
  <sodipodi:namedview
     id="base"
     pagecolor="#ffffff"
     bordercolor="#666666"
     borderopacity="1.0"
     inkscape:pageopacity="0.0"
     inkscape:pageshadow="2"
     inkscape:zoom="7.9195959"
     inkscape:cx="27.806659"
     inkscape:cy="22.307638"
     inkscape:document-units="px"
     inkscape:current-layer="layer2"
     showgrid="false"
     inkscape:window-width="1280"
     inkscape:window-height="950"
     inkscape:window-x="0"
     inkscape:window-y="25"
     inkscape:window-maximized="1" />
  <metadata
     id="metadata7">
    <rdf:RDF>
      <cc:Work
         rdf:about="">
        <dc:format>image/svg+xml</dc:format>
        <dc:type
           rdf:resource="http://purl.org/dc/dcmitype/StillImage" />
        <dc:title />
      </cc:Work>
    </rdf:RDF>
  </metadata>
  <g
     inkscape:label="Layer 1"
     inkscape:groupmode="layer"
     id="layer1"
     transform="translate(0,-988.36218)"
     sodipodi:insensitive="true"
     style="display:none">
    <image
       sodipodi:absref="/home/xinef/jmonkeyplatform/workspace/Assets/doWektorniecia/10404880_567424300038022_670312346566932983_n.jpg"
       y="-71.483261"
       x="947.52625"
       id="image7251"
       xlink:href="file:///home/xinef/jmonkeyplatform/workspace/Assets/doWektorniecia/10404880_567424300038022_670312346566932983_n.jpg"
       height="79.800995"
       width="141.6062"
       transform="matrix(0,1,-1,0,0,0)" />
  </g>
  <g
     inkscape:groupmode="layer"
     id="layer2"
     inkscape:label="Layer 2"
     style="display:inline">
    <path
       style="fill:#c73029;fill-opacity:1;stroke:#b22b25;stroke-width:1;stroke-linecap:butt;stroke-linejoin:miter;stroke-miterlimit:40;stroke-opacity:1;stroke-dasharray:none;filter:url(#filter7271)"
       d="m 14.394674,46.069792 c 4.266562,22.805566 37.923767,16.344117 35.986684,-1.136421 -1.136252,-7.960123 -8.35012,-8.937521 -2.167072,-17.272657 -2.694091,1.540867 -4.225272,3.582304 -4.553572,6.428572 -2.493225,-2.291667 -5.311036,-4.583333 -5.982143,-6.875 0.03956,-3.333975 0.539986,-6.451071 2.589286,-8.839286 -2.783599,0.400852 -3.81846,2.974888 -4.732143,5.714286 -1.806807,-2.426174 -3.653732,-4.711938 -5,-8.75 -0.315494,-8.6239501 -2.578725,-11.0800707 -5,-13.0357146 2.95198,5.0076472 2.209881,8.6778026 -0.04464,12.8571426 C 25.224575,13.767265 24.152842,12.383023 22.5,11.589286 c 1.52253,3.513491 1.85858,6.076456 0.892857,8.303571 l -3.214285,4.866072 c -1.477165,-4.464353 -3.150713,-6.064968 -7.053572,-5.9375 2.904686,1.244156 5.404236,4.246052 5.535714,8.437499 C 16.596944,33.383299 12.932693,36.69933 14.394674,46.069792 Z"
       id="path7255"
       inkscape:connector-curvature="0"
       sodipodi:nodetypes="cccccccccccccccc" />
    <path
       style="fill:#c97f15;fill-opacity:1;stroke:#a06511;stroke-width:1;stroke-linecap:butt;stroke-linejoin:round;stroke-miterlimit:40;stroke-opacity:1;stroke-dasharray:none;filter:url(#filter7267)"
       d="M 27.946429,16.321429 C 20.547578,28.075696 12.270742,44.005284 20.892857,52.392857 36.507706,67.582945 46.439805,51.035076 47.232143,48.107143 46.921904,48.430483 36.148307,57.171576 26.785714,49.267857 18.062368,41.903778 25.302303,24.835298 27.946429,16.321429 Z"
       id="path7257"
       inkscape:connector-curvature="0"
       sodipodi:nodetypes="cscsc" />
  </g>
</svg>
